<?xml version="1.0" encoding="UTF-8"?>
<svg width="93px" height="50px" viewBox="0 0 93 50" version="1.1" xmlns="http://www.w3.org/2000/svg" xmlns:xlink="http://www.w3.org/1999/xlink">
    <title>logo copy</title>
    <g id="logo-copy" stroke="none" stroke-width="1" fill="none" fill-rule="evenodd">
        <path d="M92.4036161,16.0412423 C94.9084323,28.927405 76.3043227,43.3846763 50.8501742,48.3324616 C25.3960257,53.2802468 2.73080646,46.8449204 0.225990175,33.9587577 C-2.27882611,21.072595 16.3252835,6.61532371 41.779432,1.66753845 C67.2335806,-3.28024681 89.8987998,3.1550796 92.4036161,16.0412423 Z M34.2088,16.6323967 C32.9692819,16.6323967 31.8377521,16.8436782 30.8142107,17.2662412 C29.7906692,17.6888042 28.9126772,18.299173 28.1802347,19.0973475 C27.4477922,19.895522 26.8796797,20.8815023 26.4758973,22.0552884 C26.0721149,23.2290745 25.8702237,24.5671906 25.8702237,26.0696368 C25.8702237,27.572083 26.0721149,28.9148943 26.4758973,30.0980706 C26.8796797,31.281247 27.4477922,32.2860079 28.1802347,33.1123533 C28.9126772,33.9386987 29.7906692,34.5725432 30.8142107,35.0138867 C31.8377521,35.4552303 32.9692819,35.6759021 34.2088,35.6759021 C35.4483181,35.6759021 36.5798479,35.4552303 37.6033894,35.0138867 C38.6269308,34.5725432 39.5049228,33.9386987 40.2373653,33.1123533 C40.9698078,32.2860079 41.5379203,31.281247 41.9417027,30.0980706 C42.3454851,28.9148943 42.5473763,27.572083 42.5473763,26.0696368 C42.5473763,24.5859712 42.3454851,23.2572454 41.9417027,22.0834593 C41.5379203,20.9096732 40.9698078,19.9189977 40.2373653,19.1114329 C39.5049228,18.3038681 38.6269308,17.6888042 37.6033894,17.2662412 C36.5798479,16.8436782 35.4483181,16.6323967 34.2088,16.6323967 Z M54.1104333,16.6323967 C52.8709152,16.6323967 51.7018243,16.8483734 50.6031605,17.2803266 C49.5044967,17.7122799 48.5466873,18.3414293 47.7297322,19.1677747 C46.9127771,19.9941201 46.2648471,21.0035761 45.7859424,22.1961427 C45.3070377,23.3887094 45.0675853,24.7456061 45.0675853,26.2668329 C45.0675853,27.8068402 45.2976474,29.1637369 45.7577716,30.337523 C46.2178957,31.5113091 46.8517402,32.4925942 47.659305,33.2813785 C48.4668698,34.0701627 49.4105938,34.6664461 50.490477,35.0702285 C51.5703602,35.4740109 52.7300609,35.6759021 53.969579,35.6759021 C54.6081186,35.6759021 55.2278777,35.6148652 55.8288561,35.4927915 C56.4298346,35.3707177 56.9932519,35.2063876 57.5191081,34.9998013 C58.0449642,34.7932149 58.5285641,34.5537626 58.9699077,34.2814442 C59.4112512,34.0091258 59.8009482,33.7321123 60.1389986,33.4504037 L60.1389986,24.9991439 L53.4061617,24.9991439 L53.4061617,28.3796478 L56.4486152,28.3796478 L56.4486152,31.5347848 C56.2232482,31.7225906 55.9368444,31.8634449 55.5894038,31.9573478 C55.2419631,32.0512507 54.880437,32.0982021 54.5048254,32.0982021 C52.7582317,32.0982021 51.4576768,31.5770411 50.6031605,30.5347191 C49.7486442,29.492397 49.3213861,28.0228168 49.3213861,26.1259785 C49.3213861,25.2057302 49.4434599,24.3793848 49.6876074,23.6469423 C49.9317549,22.9144998 50.2651101,22.2947408 50.6876731,21.7876652 C51.1102361,21.2805896 51.6173117,20.8908926 52.2088999,20.6185742 C52.800488,20.3462559 53.4531131,20.2100967 54.166775,20.2100967 C54.9555593,20.2100967 55.5987941,20.3321704 56.0964794,20.5763179 C56.5941647,20.8204655 57.0777645,21.1585158 57.5472789,21.5904691 L59.8291191,19.0269203 C59.20936,18.4071613 58.4252709,17.8531342 57.4768518,17.3648392 C56.5284326,16.8765442 55.4062931,16.6323967 54.1104333,16.6323967 Z M71.2794926,16.6323967 C70.0399745,16.6323967 68.9084447,16.8436782 67.8849032,17.2662412 C66.8613618,17.6888042 65.9833698,18.299173 65.2509273,19.0973475 C64.5184848,19.895522 63.9503723,20.8815023 63.5465899,22.0552884 C63.1428075,23.2290745 62.9409163,24.5671906 62.9409163,26.0696368 C62.9409163,27.572083 63.1428075,28.9148943 63.5465899,30.0980706 C63.9503723,31.281247 64.5184848,32.2860079 65.2509273,33.1123533 C65.9833698,33.9386987 66.8613618,34.5725432 67.8849032,35.0138867 C68.9084447,35.4552303 70.0399745,35.6759021 71.2794926,35.6759021 C72.5190107,35.6759021 73.6505405,35.4552303 74.6740819,35.0138867 C75.6976234,34.5725432 76.5756154,33.9386987 77.3080579,33.1123533 C78.0405004,32.2860079 78.6086129,31.281247 79.0123953,30.0980706 C79.4161777,28.9148943 79.6180689,27.572083 79.6180689,26.0696368 C79.6180689,24.5859712 79.4161777,23.2572454 79.0123953,22.0834593 C78.6086129,20.9096732 78.0405004,19.9189977 77.3080579,19.1114329 C76.5756154,18.3038681 75.6976234,17.6888042 74.6740819,17.2662412 C73.6505405,16.8436782 72.5190107,16.6323967 71.2794926,16.6323967 Z M17.4341329,16.9704471 L13.2648447,16.9704471 L13.2648447,35.3378517 L24.6740454,35.3378517 L24.6740454,31.8446643 L17.4341329,31.8446643 L17.4341329,16.9704471 Z M34.2088,20.2100967 C35.4670987,20.2100967 36.4624693,20.7265626 37.1949118,21.7594943 C37.9273543,22.7924261 38.2935756,24.2291402 38.2935756,26.0696368 C38.2935756,27.928914 37.9273543,29.3984941 37.1949118,30.4783773 C36.4624693,31.5582605 35.4670987,32.0982021 34.2088,32.0982021 C33.589041,32.0982021 33.0256237,31.9573478 32.5185481,31.6756391 C32.0114725,31.3939305 31.5842144,30.9901481 31.2367737,30.4642919 C30.889333,29.9384357 30.6170146,29.3045912 30.4198186,28.5627584 C30.2226225,27.8209256 30.1240245,26.9898851 30.1240245,26.0696368 C30.1240245,24.2291402 30.4949409,22.7924261 31.2367737,21.7594943 C31.9786065,20.7265626 32.9692819,20.2100967 34.2088,20.2100967 Z M71.2794926,20.2100967 C72.5377913,20.2100967 73.5331619,20.7265626 74.2656044,21.7594943 C74.9980469,22.7924261 75.3642681,24.2291402 75.3642681,26.0696368 C75.3642681,27.928914 74.9980469,29.3984941 74.2656044,30.4783773 C73.5331619,31.5582605 72.5377913,32.0982021 71.2794926,32.0982021 C70.6597335,32.0982021 70.0963162,31.9573478 69.5892406,31.6756391 C69.082165,31.3939305 68.6549069,30.9901481 68.3074662,30.4642919 C67.9600256,29.9384357 67.6877072,29.3045912 67.4905111,28.5627584 C67.2933151,27.8209256 67.194717,26.9898851 67.194717,26.0696368 C67.194717,24.2291402 67.5656334,22.7924261 68.3074662,21.7594943 C69.049299,20.7265626 70.0399745,20.2100967 71.2794926,20.2100967 Z" id="Shape" fill="#000000"></path>
    </g>
</svg>