<?xml version="1.0" encoding="UTF-8"?>
<svg width="93px" height="50px" viewBox="0 0 93 50" version="1.1" xmlns="http://www.w3.org/2000/svg" xmlns:xlink="http://www.w3.org/1999/xlink">
    <title>logo</title>
    <g id="logo" stroke="none" stroke-width="1" fill="none" fill-rule="evenodd">
        <g id="Group">
            <path d="M41.779432,1.66753845 C67.2335806,-3.28024681 89.8987998,3.1550796 92.4036161,16.0412423 C94.9084323,28.927405 76.3043227,43.3846763 50.8501742,48.3324616 C25.3960257,53.2802468 2.73080646,46.8449204 0.225990175,33.9587577 C-2.27882611,21.072595 16.3252835,6.61532371 41.779432,1.66753845 Z" id="Combined-Shape" fill="#006666"></path>
            <g id="LOGO" transform="translate(13.264845, 16.632397)" fill="#FFFFFF" fill-rule="nonzero">
                <polygon id="Path" points="-6.67220138e-14 0.338050391 4.16928816 0.338050391 4.16928816 15.2122676 11.4092007 15.2122676 11.4092007 18.705455 -6.67220138e-14 18.705455"></polygon>
                <path d="M20.9439553,19.0435054 C19.7044372,19.0435054 18.5729074,18.8228336 17.549366,18.38149 C16.5258245,17.9401464 15.6478325,17.306302 14.91539,16.4799566 C14.1829475,15.6536112 13.614835,14.6488503 13.2110526,13.4656739 C12.8072702,12.2824975 12.605379,10.9396863 12.605379,9.43724008 C12.605379,7.9347939 12.8072702,6.59667777 13.2110526,5.42289169 C13.614835,4.24910561 14.1829475,3.2631253 14.91539,2.46495077 C15.6478325,1.66677623 16.5258245,1.05640747 17.549366,0.633844483 C18.5729074,0.211281494 19.7044372,-6.67220138e-14 20.9439553,-6.67220138e-14 C22.1834734,-6.67220138e-14 23.3150032,0.211281494 24.3385447,0.633844483 C25.3620861,1.05640747 26.2400781,1.67147138 26.9725206,2.4790362 C27.7049631,3.28660102 28.2730756,4.27727648 28.676858,5.45106256 C29.0806404,6.62484863 29.2825316,7.95357448 29.2825316,9.43724008 C29.2825316,10.9396863 29.0806404,12.2824975 28.676858,13.4656739 C28.2730756,14.6488503 27.7049631,15.6536112 26.9725206,16.4799566 C26.2400781,17.306302 25.3620861,17.9401464 24.3385447,18.38149 C23.3150032,18.8228336 22.1834734,19.0435054 20.9439553,19.0435054 Z M20.9439553,15.4658054 C22.202254,15.4658054 23.1976246,14.9258638 23.9300671,13.8459806 C24.6625096,12.7660974 25.0287309,11.2965172 25.0287309,9.43724008 C25.0287309,7.59674351 24.6625096,6.16002935 23.9300671,5.1270976 C23.1976246,4.09416585 22.202254,3.57769997 20.9439553,3.57769997 C19.7044372,3.57769997 18.7137618,4.09416585 17.971929,5.1270976 C17.2300962,6.16002935 16.8591798,7.59674351 16.8591798,9.43724008 C16.8591798,10.3574884 16.9577778,11.1885289 17.1549738,11.9303617 C17.3521699,12.6721945 17.6244883,13.306039 17.971929,13.8318952 C18.3193696,14.3577513 18.7466278,14.7615337 19.2537034,15.0432424 C19.7607789,15.3249511 20.3241963,15.4658054 20.9439553,15.4658054 Z" id="Shape"></path>
                <path d="M31.8027406,9.63443614 C31.8027406,8.11320938 32.042193,6.75631268 32.5210977,5.56374602 C33.0000024,4.37117936 33.6479323,3.36172333 34.4648875,2.53537793 C35.2818426,1.70903253 36.239652,1.07988319 37.3383158,0.647929916 C38.4369796,0.215976639 39.6060705,-6.67220138e-14 40.8455886,-6.67220138e-14 C42.1414484,-6.67220138e-14 43.2635879,0.244147505 44.2120071,0.732442514 C45.1604262,1.22073752 45.9445153,1.77476455 46.5642744,2.3945236 L44.2824342,4.9580724 C43.8129198,4.52611912 43.3293199,4.18806873 42.8316346,3.94392123 C42.3339493,3.69977372 41.6907146,3.57769997 40.9019303,3.57769997 C40.1882684,3.57769997 39.5356433,3.71385916 38.9440551,3.98617753 C38.352467,4.2584959 37.8453914,4.64819288 37.4228284,5.15526846 C37.0002654,5.66234405 36.6669101,6.2821031 36.4227626,7.01454561 C36.1786151,7.74698813 36.0565414,8.57333353 36.0565414,9.49358181 C36.0565414,11.3904201 36.4837995,12.8600003 37.3383158,13.9023223 C38.1928321,14.9446444 39.493387,15.4658054 41.2399807,15.4658054 C41.6155923,15.4658054 41.9771184,15.4188539 42.3245591,15.3249511 C42.6719997,15.2310482 42.9584035,15.0901938 43.1837705,14.9023881 L43.1837705,11.7472511 L40.1413169,11.7472511 L40.1413169,8.36674718 L46.8741539,8.36674718 L46.8741539,16.818007 C46.5361035,17.0997156 46.1464065,17.3767291 45.705063,17.6490475 C45.2637194,17.9213659 44.7801195,18.1608182 44.2542634,18.3674046 C43.7284072,18.5739909 43.1649899,18.738321 42.5640114,18.8603947 C41.9630329,18.9824685 41.3432739,19.0435054 40.7047343,19.0435054 C39.4652162,19.0435054 38.3055155,18.8416142 37.2256323,18.4378317 C36.1457491,18.0340493 35.2020251,17.437766 34.3944603,16.6489818 C33.5868955,15.8601975 32.953051,14.8789123 32.4929268,13.7051263 C32.0328027,12.5313402 31.8027406,11.1744435 31.8027406,9.63443614 Z" id="Path"></path>
                <path d="M58.0146479,19.0435054 C56.7751298,19.0435054 55.6436,18.8228336 54.6200585,18.38149 C53.5965171,17.9401464 52.7185251,17.306302 51.9860826,16.4799566 C51.2536401,15.6536112 50.6855276,14.6488503 50.2817452,13.4656739 C49.8779628,12.2824975 49.6760716,10.9396863 49.6760716,9.43724008 C49.6760716,7.9347939 49.8779628,6.59667777 50.2817452,5.42289169 C50.6855276,4.24910561 51.2536401,3.2631253 51.9860826,2.46495077 C52.7185251,1.66677623 53.5965171,1.05640747 54.6200585,0.633844483 C55.6436,0.211281494 56.7751298,-6.67220138e-14 58.0146479,-6.67220138e-14 C59.254166,-6.67220138e-14 60.3856958,0.211281494 61.4092372,0.633844483 C62.4327787,1.05640747 63.3107707,1.67147138 64.0432132,2.4790362 C64.7756557,3.28660102 65.3437682,4.27727648 65.7475506,5.45106256 C66.151333,6.62484863 66.3532242,7.95357448 66.3532242,9.43724008 C66.3532242,10.9396863 66.151333,12.2824975 65.7475506,13.4656739 C65.3437682,14.6488503 64.7756557,15.6536112 64.0432132,16.4799566 C63.3107707,17.306302 62.4327787,17.9401464 61.4092372,18.38149 C60.3856958,18.8228336 59.254166,19.0435054 58.0146479,19.0435054 Z M58.0146479,15.4658054 C59.2729466,15.4658054 60.2683171,14.9258638 61.0007597,13.8459806 C61.7332022,12.7660974 62.0994234,11.2965172 62.0994234,9.43724008 C62.0994234,7.59674351 61.7332022,6.16002935 61.0007597,5.1270976 C60.2683171,4.09416585 59.2729466,3.57769997 58.0146479,3.57769997 C56.7751298,3.57769997 55.7844543,4.09416585 55.0426215,5.1270976 C54.3007887,6.16002935 53.9298723,7.59674351 53.9298723,9.43724008 C53.9298723,10.3574884 54.0284703,11.1885289 54.2256664,11.9303617 C54.4228625,12.6721945 54.6951808,13.306039 55.0426215,13.8318952 C55.3900622,14.3577513 55.8173203,14.7615337 56.3243959,15.0432424 C56.8314715,15.3249511 57.3948888,15.4658054 58.0146479,15.4658054 Z" id="Shape"></path>
            </g>
        </g>
    </g>
</svg>